<svg version="1.1" viewBox="0.000000 0.000000 96.000000 96.000000" xmlns="http://www.w3.org/2000/svg" xmlns:xlink="http://www.w3.org/1999/xlink" id="Icons_Medal" overflow="hidden"><g><path d=" M 48.000000 53.400002 C 41.500000 53.400002 36.200001 58.700001 36.200001 65.199997 C 36.200001 71.699997 41.500000 77.099998 48.000000 77.099998 C 54.500000 77.099998 59.799999 71.800003 59.799999 65.300003 C 59.799999 58.799999 54.500000 53.400002 48.000000 53.400002" stroke="none" stroke-width="1.000000" stroke-dasharray="" stroke-dashoffset="1.000000" fill="#4A7AEC" fill-opacity="1.000000"/><path d=" M 48.000000 43.299999 C 35.900002 43.299999 26.000000 53.200001 26.000000 65.300003 C 26.000000 77.400002 35.900002 87.300003 48.000000 87.300003 C 60.099998 87.300003 70.000000 77.400002 70.000000 65.300003 C 70.000000 53.200001 60.099998 43.299999 48.000000 43.299999 M 48.000000 81.300003 C 39.200001 81.300003 32.000000 74.099998 32.000000 65.300003 C 32.000000 56.500000 39.200001 49.299999 48.000000 49.299999 C 56.799999 49.299999 64.000000 56.500000 64.000000 65.300003 C 64.000000 74.099998 56.799999 81.300003 48.000000 81.300003" stroke="none" stroke-width="1.000000" stroke-dasharray="" stroke-dashoffset="1.000000" fill="#4A7AEC" fill-opacity="1.000000"/><path d=" M 53.400002 39.799999 C 57.400002 40.700001 61.099998 42.400002 64.300003 44.900002 L 76.599998 17.100000 L 71.000000 8.700000 L 67.400002 8.700000 L 59.599998 25.799999 L 53.400002 39.799999 Z" stroke="none" stroke-width="1.000000" stroke-dasharray="" stroke-dashoffset="1.000000" fill="#4A7AEC" fill-opacity="1.000000"/><path d=" M 42.599998 39.799999 L 36.400002 25.799999 L 28.600000 8.700000 L 25.000000 8.700000 L 19.500000 17.100000 L 31.799999 44.900002 C 34.900002 42.500000 38.599998 40.700001 42.599998 39.799999" stroke="none" stroke-width="1.000000" stroke-dasharray="" stroke-dashoffset="1.000000" fill="#4A7AEC" fill-opacity="1.000000"/><path d=" M 57.500000 20.799999 L 63.000000 8.800000 L 33.000000 8.800000 L 38.500000 20.799999 Z" stroke="none" stroke-width="1.000000" stroke-dasharray="" stroke-dashoffset="1.000000" fill="#4A7AEC" fill-opacity="1.000000"/></g></svg>